<svg width="379" height="70" viewBox="0 0 379 70" fill="none" xmlns="http://www.w3.org/2000/svg">
<path d="M21.28 29.48H20.44C17.28 29.48 14.48 29.16 12 28.56C9.56 27.92 7.6 27.12 6.12 26.16C4.68 25.2 3.48 24.08 2.56 22.8C1.64 21.48 1 20.24 0.64 19.08C0.32 17.88 0.16 16.68 0.16 15.44V14.4C0.16 13.16 0.28 12 0.56 10.84C0.84 9.72 1.44 8.48 2.36 7.2C3.28 5.92 4.48 4.8 5.92 3.88C7.36 2.92 9.36 2.16 11.92 1.52C14.44 0.88 17.4 0.599998 20.76 0.599998H22.52C25.76 0.599998 28.64 0.839998 31.12 1.32C33.6 1.84 35.56 2.44 36.96 3.2C38.36 3.92 39.52 4.8 40.4 5.8C41.32 6.84 41.92 7.76 42.2 8.6C42.52 9.44 42.68 10.28 42.68 11.16V11.2H32.56C31.52 8.56 27.92 7.24 21.72 7.24C14 7.24 10.12 9.76 10.12 14.76V15.2C10.12 17.24 11.08 19 12.96 20.48C14.88 21.96 17.76 22.68 21.64 22.68C23.32 22.68 24.88 22.56 26.28 22.36C27.72 22.12 28.84 21.84 29.68 21.52C30.52 21.2 31.24 20.84 31.84 20.44C32.4 20.08 32.84 19.72 33.08 19.44C33.28 19.12 33.4 18.88 33.4 18.72V18.64H21.44V13.36H42.92V29H36.04C36.04 29 36 26.48 35.96 24.64C32.88 27.88 28 29.48 21.28 29.48ZM56.8194 22.44H152.019V29H47.2594V0.719999H151.579V7.16H56.8194V11.32H151.059V17.8H56.8194V22.44ZM189.243 17.36C190.203 18.4 190.683 19.76 190.683 21.44V29H182.003V24.08C182.003 22.4 181.563 21.16 180.683 20.4C179.803 19.64 178.323 19.24 176.203 19.24H164.923V29H156.283V1.48H178.563C186.563 1.48 190.563 3.88 190.563 8.64V9.08C190.563 12 188.843 14 185.443 15.12C187.003 15.56 188.283 16.28 189.243 17.36ZM181.523 10.44V10.4C181.523 9.6 181.243 8.96 180.683 8.48C180.123 8 179.243 7.72 178.043 7.72H164.923V13.16H178.043C179.243 13.16 180.123 12.88 180.683 12.4C181.243 11.92 181.523 11.24 181.523 10.44ZM221.515 1.32L236.395 28.96H226.995L224.395 23.92H204.435L201.835 28.96H192.475L207.315 1.32H221.515ZM207.675 17.68H221.195L215.915 7.52H212.915L207.675 17.68ZM238.744 0.959999H258.984C261.824 0.959999 264.424 1.12 266.704 1.48C269.024 1.84 270.944 2.32 272.464 3C274.024 3.68 275.344 4.4 276.424 5.24C277.504 6.04 278.344 6.96 278.944 8C279.504 9.04 279.944 10.04 280.184 11.04C280.464 12.04 280.584 13.08 280.584 14.2V15.36C280.584 16.68 280.424 17.92 280.064 19.08C279.744 20.28 279.104 21.48 278.144 22.72C277.144 24 275.904 25.08 274.384 25.96C272.824 26.84 270.744 27.56 268.104 28.12C265.504 28.72 262.464 29 259.024 29H238.744V0.959999ZM248.304 7.56V22.24H258.264C266.464 22.24 270.544 19.84 270.544 15V14.8C270.544 9.96 266.464 7.56 258.264 7.56H248.304ZM304.453 0.559999H305.733C308.413 0.559999 310.813 0.719999 312.973 1.08C315.133 1.4 316.933 1.84 318.413 2.4C319.853 2.96 321.133 3.64 322.213 4.44C323.333 5.24 324.173 6.04 324.773 6.84C325.413 7.64 325.893 8.52 326.293 9.48C326.653 10.44 326.933 11.28 327.013 12.04C327.133 12.8 327.173 13.56 327.173 14.4V15.52C327.173 16.32 327.133 17.12 327.013 17.88C326.933 18.6 326.653 19.48 326.293 20.44C325.893 21.4 325.413 22.28 324.813 23.12C324.213 23.92 323.373 24.72 322.253 25.56C321.133 26.36 319.853 27.04 318.413 27.64C316.973 28.2 315.173 28.64 312.973 29C310.813 29.36 308.413 29.52 305.733 29.52H304.453C301.773 29.52 299.373 29.36 297.173 29C295.013 28.64 293.173 28.2 291.733 27.64C290.293 27.04 289.013 26.36 287.893 25.56C286.773 24.72 285.933 23.92 285.293 23.12C284.693 22.28 284.213 21.4 283.853 20.44C283.453 19.48 283.213 18.6 283.133 17.88C283.013 17.12 282.973 16.32 282.973 15.52V14.4C282.973 13.56 283.013 12.8 283.133 12.04C283.213 11.32 283.453 10.44 283.853 9.48C284.213 8.52 284.693 7.64 285.293 6.84C285.933 6.04 286.773 5.24 287.893 4.44C288.973 3.64 290.253 2.96 291.693 2.4C293.173 1.84 295.013 1.4 297.173 1.08C299.373 0.719999 301.773 0.559999 304.453 0.559999ZM317.173 15.2V14.68C317.173 13.96 317.093 13.28 316.893 12.68C316.693 12.04 316.333 11.4 315.773 10.72C315.253 10.04 314.533 9.44 313.653 9C312.773 8.52 311.573 8.12 310.093 7.8C308.853 7.52 307.453 7.4 305.893 7.36C305.533 7.32 304.813 7.32 304.573 7.32C296.853 7.48 292.973 9.92 292.973 14.68V15.12C292.973 16 293.133 16.88 293.493 17.68C293.813 18.48 294.413 19.28 295.213 20.08C296.053 20.88 297.293 21.52 299.013 22C300.613 22.44 302.533 22.68 304.733 22.72C304.933 22.72 305.413 22.72 305.733 22.72C307.773 22.64 309.573 22.44 311.053 22C312.773 21.56 314.053 20.92 314.893 20.12C315.733 19.36 316.333 18.56 316.653 17.76C317.013 16.96 317.173 16.08 317.173 15.2ZM363.774 17.36C364.734 18.4 365.214 19.76 365.214 21.44V29H356.534V24.08C356.534 22.4 356.094 21.16 355.214 20.4C354.334 19.64 352.854 19.24 350.734 19.24H339.454V29H330.814V1.48H353.094C361.094 1.48 365.094 3.88 365.094 8.64V9.08C365.094 12 363.374 14 359.974 15.12C361.534 15.56 362.814 16.28 363.774 17.36ZM356.054 10.44V10.4C356.054 9.6 355.774 8.96 355.214 8.48C354.654 8 353.774 7.72 352.574 7.72H339.454V13.16H352.574C353.774 13.16 354.654 12.88 355.214 12.4C355.774 11.92 356.054 11.24 356.054 10.44ZM1.4 40.96H21.64C24.48 40.96 27.08 41.12 29.36 41.48C31.68 41.84 33.6 42.32 35.12 43C36.68 43.68 38 44.4 39.08 45.24C40.16 46.04 41 46.96 41.6 48C42.16 49.04 42.6 50.04 42.84 51.04C43.12 52.04 43.24 53.08 43.24 54.2V55.36C43.24 56.68 43.08 57.92 42.72 59.08C42.4 60.28 41.76 61.48 40.8 62.72C39.8 64 38.56 65.08 37.04 65.96C35.48 66.84 33.4 67.56 30.76 68.12C28.16 68.72 25.12 69 21.68 69H1.4V40.96ZM10.96 47.56V62.24H20.92C29.12 62.24 33.2 59.84 33.2 55V54.8C33.2 49.96 29.12 47.56 20.92 47.56H10.96ZM46.8297 40.96H79.0297V47.32H56.2697V51.48H78.5097V57.88H56.2697V62.48H79.4697V69H46.8297V40.96ZM121.95 69.52C118.91 69.52 116.23 69.28 113.99 68.8C111.71 68.32 109.95 67.76 108.71 67.08C107.51 66.4 106.51 65.56 105.79 64.6C105.07 63.64 104.59 62.76 104.39 62C104.19 61.24 104.11 60.4 104.11 59.52V59.12H114.07C114.27 62.08 116.43 63.56 122.27 63.56H124.47C126.39 63.56 127.19 63.44 128.47 63.28C129.71 63.12 130.63 62.92 131.19 62.6C131.79 62.28 132.15 62 132.35 61.68C132.55 61.36 132.63 61 132.63 60.56C132.63 59.96 132.47 59.48 132.15 59.12C131.83 58.8 131.03 58.48 129.83 58.2C128.63 57.96 126.91 57.8 124.63 57.76L121.63 57.68L119.39 57.64C109.47 57.4 104.51 54.64 104.51 49.44V49.08C104.51 48.2 104.63 47.36 104.87 46.6C105.11 45.84 105.59 45.08 106.35 44.28C107.07 43.52 108.03 42.88 109.23 42.36C110.43 41.84 112.03 41.4 114.07 41.08C116.07 40.72 118.43 40.56 121.11 40.56H123.95C126.71 40.56 129.19 40.72 131.31 41.08C133.47 41.44 135.15 41.88 136.43 42.44C137.71 43 138.75 43.68 139.55 44.48C140.35 45.28 140.91 46.08 141.19 46.84C141.51 47.64 141.67 48.48 141.67 49.4V49.76H131.75C131.67 49.48 131.59 49.2 131.51 49C131.43 48.8 131.19 48.52 130.83 48.16C130.47 47.8 130.03 47.52 129.43 47.28C128.87 47.08 127.99 46.88 126.87 46.68C125.75 46.52 124.87 46.44 123.35 46.44H121.95C119.63 46.44 118.19 46.56 116.95 46.8C115.75 47.08 114.99 47.36 114.75 47.64C114.47 47.92 114.35 48.32 114.35 48.84C114.35 49.32 114.47 49.68 114.79 50C115.07 50.28 115.75 50.56 116.83 50.84C117.91 51.08 119.43 51.2 121.39 51.24L123.63 51.28L126.51 51.32C132.23 51.4 136.31 52.12 138.83 53.44C141.39 54.76 142.63 56.8 142.63 59.64V60.16C142.63 61.2 142.51 62.12 142.27 62.92C142.03 63.72 141.51 64.56 140.75 65.44C139.99 66.28 138.99 67 137.71 67.56C136.43 68.16 134.71 68.6 132.51 68.96C130.31 69.36 127.71 69.52 124.75 69.52H121.95ZM146.4 40.96H178.6V47.32H155.84V51.48H178.08V57.88H155.84V62.48H179.04V69H146.4V40.96ZM278.075 40.8H287.595V69H278.075L192.795 50.32V69H183.275V40.8H194.035L278.075 58.56V40.8ZM292.415 69V41.08H301.935V51.24H322.375V41.08H331.935V69H322.375V58H301.935V69H292.415ZM363.312 41.32L378.192 68.96H368.792L366.192 63.92H346.232L343.632 68.96H334.272L349.112 41.32H363.312ZM349.472 57.68H362.992L357.712 47.52H354.712L349.472 57.68Z" fill="white"/>
</svg>
